<?xml-stylesheet href="defaultstyles.css" type="text/css"?>
<svg xmlns="http://www.w3.org/2000/svg" xmlns:d="http://www.mathworks.com/blockgraphics" xmlns:xlink="http://www.w3.org/1999/xlink" version="1.1" id="svg_3" width="400" height="400" d:options="Foreground:PortStyled;StrokeScaling:PortStyled;StrokeScalingOnResize:NonScaling;LineExtension:On;Rotate:On;Resize:FitToBlock;Frame:Off;PreAdjustSize:None;PreAdjustStrokeWidth:Normalized;Geometric:Off;Port:Auto Majority">
	<g id="layer_4" title="layer_0">
		<rect id="rect_boundary" class="rect" style="fill:none;stroke:none;" x="10" y="10" width="380" height="380" rx="0" ry="0"/>
		<ellipse id="shaft" class="ellipse" style="fill: none;" d:options="Port:L0;" cx="200" cy="200" rx="10" ry="10"/>
		<path id="blade1" class="path" transform="matrix(0.99619,0.08716,-0.08716,0.99619,10.69979,-22.68536)" d:options="Port:R0;" d=" M 206.44,187.68 Q 219.57,151.3 232.79,127.33 C 246.01,103.36 252.61999999999998,94.27 273.28,68.64999999999999 Q 293.94,43.03 318.53999999999996,29.61 Q 323.39,31.56 323.39,44.17999999999999 Q 323.39,56.8 273.28,141.10000000000002 Q 261.28,148.97 249.23,162.22 Q 237.17999999999998,175.47 225.09,199.46 Q 223.34,192.93 218.13,190.25 Q 212.91,187.56 206.44,187.68 Z"/>
		<path id="blade2" class="path" transform="matrix(-0.99619,-0.08716,0.08716,-0.99619,241.88884,586.36285)" d:options="Port:R0;" d=" M 74.69873786407767,361.45873786407765 Q 87.82873786407767,325.07873786407765 101.04873786407767,301.1087378640776 C 114.26873786407769,277.1387378640776 120.87873786407765,268.0487378640777 141.53873786407763,242.42873786407768 Q 162.1987378640777,216.80873786407767 186.79873786407774,203.38873786407765 Q 191.64873786407765,205.33873786407764 191.64873786407765,217.95873786407765 Q 191.64873786407765,230.57873786407765 141.53873786407763,314.8787378640776 Q 129.53873786407763,322.7487378640776 117.48873786407766,335.9987378640776 Q 105.43873786407765,349.2487378640776 93.34873786407768,373.2387378640776 Q 91.59873786407768,366.70873786407765 86.38873786407767,364.0287378640776 Q 81.16873786407767,361.33873786407764 74.69873786407767,361.45873786407765 Z"/>
		<path id="Rcon" class="path" d:options="Port:L0;" d=" M 10,100 L 99.43593279650668,100 L 193.84052852615264,192.23054217234989"/>
	</g>
</svg>
